HIERARCHY
ROOT Hips
{
	OFFSET -3.958830 18.904000 13.208200
	CHANNELS 6 Xposition Yposition Zposition Zrotation Yrotation Xrotation 
	JOINT LHipJoint
	{
		OFFSET 0.000000 0.000000 0.000000
		CHANNELS 3 Zrotation Yrotation Xrotation
		JOINT LeftUpLeg
		{
			OFFSET 1.800000 -1.400000 0.085000
			CHANNELS 3 Zrotation Yrotation Xrotation
			JOINT LeftLeg
			{
				OFFSET 2.215000 -6.000000 0.000000
				CHANNELS 3 Zrotation Yrotation Xrotation
				JOINT LeftFoot
				{
					OFFSET 2.500000 -6.900000 0.000000
					CHANNELS 3 Zrotation Yrotation Xrotation
					JOINT LeftToeBase
					{
						OFFSET 0.200000 -0.500000 1.950000
						CHANNELS 3 Zrotation Yrotation Xrotation
						End Site
						{
							OFFSET 0.000000 0.000000 0.000000
						}
					}
				}
			}
		}
	}
	JOINT RHipJoint
	{
		OFFSET 0.000000 0.000000 0.000000
		CHANNELS 3 Zrotation Yrotation Xrotation
		JOINT RightUpLeg
		{
			OFFSET -1.800000 -1.400000 0.085000
			CHANNELS 3 Zrotation Yrotation Xrotation
			JOINT RightLeg
			{
				OFFSET -2.215000 -6.000000 0.000000
				CHANNELS 3 Zrotation Yrotation Xrotation
				JOINT RightFoot
				{
					OFFSET -2.500000 -6.900000 0.000000
					CHANNELS 3 Zrotation Yrotation Xrotation
					JOINT RightToeBase
					{
						OFFSET -0.200000 -0.500000 1.950000
						CHANNELS 3 Zrotation Yrotation Xrotation
						End Site
						{
							OFFSET 0.000000 0.000000 0.000000
						}
					}
				}
			}
		}
	}
	JOINT LowerBack
	{
		OFFSET 0.000000 0.000000 0.000000
		CHANNELS 3 Zrotation Yrotation Xrotation
		JOINT Spine
		{
			OFFSET -0.087000 1.940000 -0.288900
			CHANNELS 3 Zrotation Yrotation Xrotation
			JOINT Spine1
			{
				OFFSET 0.000000 1.950000 0.060000
				CHANNELS 3 Zrotation Yrotation Xrotation
				JOINT Neck
				{
					OFFSET 0.000000 0.000000 0.000000
					CHANNELS 3 Zrotation Yrotation Xrotation
					JOINT Neck1
					{
						OFFSET 0.000000 1.600000 0.340000
						CHANNELS 3 Zrotation Yrotation Xrotation
						JOINT Head
						{
							OFFSET 0.000000 1.667000 -0.240000
							CHANNELS 3 Zrotation Yrotation Xrotation
							End Site
							{
								OFFSET 0.000000 0.000000 0.000000
							}
						}
					}
				}
				JOINT LeftShoulder
				{
					OFFSET 0.000000 0.000000 0.000000
					CHANNELS 3 Zrotation Yrotation Xrotation
					JOINT LeftArm
					{
						OFFSET 2.700000 1.550000 -0.730000
						CHANNELS 3 Zrotation Yrotation Xrotation
						JOINT LeftForeArm
						{
							OFFSET 5.450000 0.000000 0.000000
							CHANNELS 3 Zrotation Yrotation Xrotation
							JOINT LeftHand
							{
								OFFSET 3.450000 0.000000 0.000000
								CHANNELS 3 Zrotation Yrotation Xrotation
								JOINT LeftHandIndex1
								{
									OFFSET 0.750000 0.000000 0.000000
									CHANNELS 3 Zrotation Yrotation Xrotation
									End Site
									{
										OFFSET 0.000000 0.000000 0.000000
									}
								}
							}
						}
					}
				}
				JOINT RightShoulder
				{
					OFFSET 0.000000 0.000000 0.000000
					CHANNELS 3 Zrotation Yrotation Xrotation
					JOINT RightArm
					{
						OFFSET -2.700000 1.550000 -0.730000
						CHANNELS 3 Zrotation Yrotation Xrotation
						JOINT RightForeArm
						{
							OFFSET -5.450000 0.000000 0.000000
							CHANNELS 3 Zrotation Yrotation Xrotation
							JOINT RightHand
							{
								OFFSET -3.450000 0.000000 0.000000
								CHANNELS 3 Zrotation Yrotation Xrotation
								JOINT RightHandIndex1
								{
									OFFSET -0.750000 0.000000 0.000000
									CHANNELS 3 Zrotation Yrotation Xrotation
									End Site
									{
										OFFSET 0.000000 0.000000 0.000000
									}
								}
							}
						}
					}
				}
			}
		}
	}
}
MOTION
Frames: 7
Frame Time: 0.016667
0.974970 12.060210 -1.560280 -80.197106 -59.626795 41.835824 -16.158373 7.214334 5.443850 -26.586989 -31.092897 -85.887478 77.035693 -11.605018 38.330434 1.643841 14.152141 -0.311595 0.216840 -0.102530 0.128040 18.682322 -4.020918 7.153544 -58.946082 8.781053 -26.199329 126.532705 -4.103068 -0.346336 -1.364127 -6.847831 1.866388 0.054930 0.477150 0.416070 -3.371825 -1.801264 -11.489832 -4.315313 11.914358 49.000428 -14.239332 10.788100 20.475614 9.341395 -5.986679 -15.344626 -12.354181 17.208601 48.093863 8.597260 4.417710 -0.072280 -6.824458 -16.909695 7.639854 -42.045343 -4.346064 -2.473342 24.754277 0.655278 -1.135761 -4.238338 3.196205 0.441980 0.258060 -0.164890 -0.096570 -12.817440 29.500266 9.201706 16.390728 26.914406 -7.201095 -135.805891 42.082101 -117.779766 1.975133 -1.646437 -0.194310 0.034970 0.337880 -0.080940 
0.857890 12.070390 -1.405840 -83.658943 -63.754593 39.549821 -16.104009 7.886245 5.734454 -21.872342 -28.408988 -85.400147 85.075286 -16.441501 43.753122 2.353453 15.756867 -0.533563 0.431690 0.141880 0.390210 18.552361 -5.330690 5.971340 -62.002000 10.548029 -26.507102 128.014814 -29.437085 7.150940 -2.266541 -9.448508 1.189942 0.056200 0.223930 0.300450 -3.381944 -1.724546 -11.063164 -3.063497 11.631088 52.476499 -14.124764 11.161324 20.902935 8.988757 -3.855468 -17.748073 -11.759997 14.046843 56.540976 4.929820 3.221990 -3.518890 -11.845584 -22.170714 8.800287 -38.159338 -2.107079 -1.920562 16.647544 8.212899 0.280809 -4.028894 2.981756 0.546770 0.042420 0.054750 -0.007050 -7.377236 33.408033 13.007505 23.764333 20.575406 -8.680016 -144.398631 39.434494 -134.088247 1.925859 -1.718665 -0.076740 0.131460 0.102740 -0.117080 
0.837260 12.038470 -1.271260 -90.967234 -66.722272 41.670169 -16.074138 8.380903 6.210434 -14.254161 -24.883241 -85.416203 90.235169 -22.385350 50.354096 2.879550 17.083600 -0.723765 0.632910 0.360340 0.711360 18.393244 -6.683128 4.671147 -61.400788 14.161148 -30.899850 104.741784 -61.607427 32.274443 -2.608250 -10.239376 0.976750 0.096310 -0.071600 0.164590 -3.492664 -1.647648 -10.699387 -1.431807 9.743989 57.211360 -14.639121 10.432309 19.621775 9.126639 -2.281104 -19.321853 -11.386191 12.241531 63.457096 0.096020 4.065900 -10.721100 -18.029095 -24.473160 9.655034 -36.427257 2.762685 -3.186249 16.281660 5.155152 0.075672 -3.655811 2.775991 0.736840 -0.210840 0.313350 0.028080 -1.408288 34.338108 13.467922 31.043514 14.729313 -17.052983 -127.686441 47.418991 -112.074837 2.157767 -1.244573 -0.042230 0.261520 -0.115810 -0.199990 
0.836640 12.054790 -1.134800 -95.581936 -67.737053 45.172603 -16.080817 7.648641 6.398352 -3.202831 -22.208673 -85.811252 90.998212 -28.741069 59.783647 3.464684 18.440398 -0.868995 0.793150 0.614110 0.858750 18.509632 -5.768551 5.387037 -63.963137 15.655294 -33.126953 79.845476 -67.213681 53.365822 -2.932411 -11.257147 0.759830 0.193720 -0.179780 0.050980 -3.624572 -1.841989 -11.264517 -0.561418 6.011228 58.955768 -15.745729 8.893352 19.856049 9.104090 -2.249976 -20.559338 -13.196545 12.707333 67.038231 -0.397170 4.109370 -13.115540 -23.342759 -27.220776 10.772965 -32.588744 6.099120 -2.944688 13.458036 6.478979 0.312626 -3.483111 2.635553 0.725130 -0.318330 0.440740 0.124180 4.354727 36.367121 12.184429 31.987230 13.078234 -24.548667 -101.201526 57.047274 -76.204587 2.228358 -0.285316 0.009240 0.372450 -0.311230 -0.162070 
0.820910 12.057590 -1.061430 -95.681812 -69.360057 44.643603 -16.376962 6.928210 6.672414 8.477212 -19.257677 -84.409379 81.159312 -34.090985 79.283227 4.077540 20.950366 -1.402160 1.008290 0.893110 0.984760 18.394555 -4.678709 5.958186 -64.868470 13.568412 -38.137273 58.114488 -65.810818 70.813198 -3.560122 -13.739554 0.086411 0.328910 -0.377520 0.102610 -3.390492 -2.577347 -11.772223 -2.777702 6.174840 59.152052 -12.450613 8.745077 20.776960 8.185926 -0.986588 -19.791857 -9.641865 10.147885 71.436348 -0.062600 3.610770 -17.459240 -23.506690 -28.071588 10.939115 -33.248534 3.638557 -3.123382 16.045523 4.614805 0.119816 -3.335122 2.821070 0.772940 -0.416350 0.588340 0.139060 6.371620 36.468262 11.285556 35.534073 12.577997 -26.493663 -74.406286 54.663833 -47.821739 1.935819 -0.777458 0.130210 0.271670 -0.428050 -0.177000 
0.895560 12.049620 -1.032060 -104.126883 -70.637390 53.146917 -16.548691 6.311477 7.174819 23.490930 -12.634160 -80.665873 60.846032 -31.491673 107.440233 4.476751 22.916785 -1.750560 1.116940 0.967100 1.141980 18.362155 -4.202640 6.035894 -59.428409 10.078208 -46.925677 39.664470 -58.449664 82.542174 -4.104378 -16.347514 -0.554418 0.361830 -0.503150 0.120800 -3.286634 -2.866751 -12.123782 -3.879866 6.064843 60.490216 -9.627007 9.766808 19.960984 6.619162 0.722783 -20.398323 -5.666710 7.067932 75.268485 0.519460 3.921250 -21.241370 -23.632595 -30.537307 11.282505 -33.760439 1.969091 -5.167307 22.592206 -1.004258 -1.251365 -3.188332 2.909794 0.909340 -0.507690 0.706080 0.124560 9.687702 37.824726 11.778624 41.188714 9.395504 -28.231145 -60.610207 47.778285 -34.358675 1.982055 -1.190186 0.135590 0.260980 -0.493720 -0.246920 
0.891970 12.013730 -0.958600 -102.525798 -73.022181 51.384929 -16.748393 6.611504 7.200971 31.066661 -11.674618 -74.863220 52.538213 -25.873080 120.071338 4.250024 21.620805 -1.555191 1.075770 0.908320 1.188900 18.169814 -4.405725 5.724751 -55.552315 6.269650 -51.320575 21.349924 -47.168064 92.069544 -4.069962 -17.204865 -0.839473 0.280750 -0.587340 0.183050 -3.089454 -3.473434 -12.035817 -6.367010 7.201677 62.472722 -6.557299 9.617770 17.062490 5.329659 4.000123 -19.929175 2.566711 0.178087 77.256473 -2.473550 3.814260 -21.905360 -27.649117 -31.267993 11.212355 -28.505466 0.610413 -3.167905 17.875086 3.896817 -0.369446 -3.315449 2.821008 0.902590 -0.508190 0.742890 0.041980 16.250388 35.872240 11.238809 44.980880 4.132673 -27.292289 -52.052641 40.262243 -24.829935 2.067387 -1.371995 0.199340 0.152350 -0.471260 -0.280630 
